<?xml version="1.0" standalone="no"?>
<!DOCTYPE svg PUBLIC "-//W3C//DTD SVG 20010904//EN"
 "http://www.w3.org/TR/2001/REC-SVG-20010904/DTD/svg10.dtd">
<svg version="1.0" xmlns="http://www.w3.org/2000/svg"
 width="640.000000pt" height="640.000000pt" viewBox="0 0 640.000000 640.000000"
 preserveAspectRatio="xMidYMid meet">
<metadata>
Created by potrace 1.14, written by Peter Selinger 2001-2017
</metadata>
<g transform="translate(0.000000,640.000000) scale(0.100000,-0.100000)"
fill="#000000" stroke="none">
<path d="M1575 5430 c-102 -16 -183 -42 -290 -95 -170 -85 -303 -207 -397
-366 -21 -34 -137 -311 -259 -616 l-221 -553 -72 -37 c-103 -54 -210 -164
-263 -270 -74 -148 -74 -146 -71 -863 l3 -635 25 -50 c31 -64 91 -124 155
-155 47 -23 63 -25 259 -30 l208 -5 18 -70 c41 -163 120 -303 239 -428 264
-276 662 -368 1024 -237 287 104 520 363 596 663 l19 72 652 0 652 0 18 -70
c41 -163 120 -303 239 -428 264 -276 662 -368 1024 -237 287 104 520 364 596
663 l19 72 208 5 c196 5 212 7 259 30 64 31 124 91 155 155 25 50 25 52 28
375 3 369 -6 464 -63 637 -68 203 -157 347 -314 504 -190 190 -401 304 -655
355 l-86 17 -517 646 c-284 355 -542 670 -573 699 -110 106 -256 186 -428 235
-77 22 -82 22 -1107 23 -566 1 -1052 -2 -1080 -6z m665 -1110 l0 -480 -560 0
c-308 0 -560 3 -560 7 0 5 71 185 158 402 227 570 202 549 675 550 l287 1 0
-480z m1384 466 c27 -8 65 -26 87 -40 30 -20 472 -560 732 -893 7 -10 -165
-13 -857 -13 l-866 0 0 480 0 480 428 0 c343 0 438 -3 476 -14z m1328 -2406
c190 -59 328 -248 328 -450 0 -189 -106 -363 -272 -444 -246 -120 -526 -20
-645 230 -32 67 -37 87 -41 172 -3 83 0 108 20 173 46 141 125 234 253 295
116 56 230 63 357 24z m-3237 5 c172 -45 305 -179 350 -352 65 -249 -94 -511
-350 -578 -251 -65 -513 94 -580 350 -89 343 237 669 580 580z"/>
</g>
</svg>
